<?xml version="1.0" encoding="utf-8"?>
<!-- Generator: Adobe Illustrator 15.0.0, SVG Export Plug-In . SVG Version: 6.00 Build 0)  -->
<svg version="1.2" baseProfile="tiny" id="Layer_1" xmlns="http://www.w3.org/2000/svg" xmlns:xlink="http://www.w3.org/1999/xlink"
	 viewBox="0 0 147.899 93.499" overflow="inherit" xml:space="preserve">
<polygon fill="#A38874" points="51.292,0 38.333,24.279 14.553,31.372 0,80.095 38.333,93.499 107.232,90.341 135.772,69.851
	147.113,50.747 134.305,31.372 100.091,26.759 74.971,4.744 "/>
<polygon fill="#887160" points="51.292,0 38.333,24.279 14.553,31.372 0,80.095 38.333,93.499 73.557,91.885 82.221,78.472
	52.344,60.687 31.369,71.027 24.632,45.141 37.455,32.561 45.313,29.648 "/>
<polygon fill="#887160" points="68.061,55.724 89.567,70.199 89.567,83.848 103.03,83.848 109.834,69.786 95.772,51.492 "/>
<polygon fill="#887160" points="56.793,39.097 57.795,29.648 73.557,28.14 78.4,35.457 70.391,43.608 "/>
<polygon fill="#887160" points="142.393,43.608 147.114,50.747 135.772,69.849 107.232,90.343 130.065,65.235 132.222,51.492 "/>
<polygon fill="#EAC2A4" points="80.583,9.661 100.091,26.759 122.655,29.648 134.305,31.372 140.98,41.469 132.03,34.354
	100.044,32.974 92.6,26.42 "/>
</svg>
