
<svg xmlns="http://www.w3.org/2000/svg" viewBox="0 0 511.969 511.969">
  <path d="M403.27 206.58l-84.11-84.108c-2.36 4.328-3.504 9.14-3.435 13.94l84.11 84.108c-.07-4.8 1.075-9.61 3.435-13.94zM428.522 191.833l-84.11-84.11c-4.8-.068-9.61 1.077-13.938 3.437l84.11 84.11c4.327-2.36 9.138-3.507 13.938-3.437z" fill="#FFF294"/>
  <path d="M399.835 220.52l32.427 32.427c-.334-9.41 1.81-18.33 7.63-24.15 4.88-4.88 11.506-6.9 18.657-6.938l-30.027-30.027c-4.8-.07-9.61 1.076-13.94 3.436l11.076 11.074c3.124 3.125 3.124 8.188 0 11.313-1.564 1.563-3.61 2.344-5.657 2.344s-4.094-.78-5.656-2.343l-11.075-11.075c-2.362 4.327-3.507 9.138-3.437 13.938z" fill="#FFF"/>
  <path d="M220.522 399.833l-84.11-84.11c-4.8-.068-9.61 1.077-13.938 3.437l84.11 84.11c4.327-2.36 9.138-3.507 13.938-3.437zM195.27 414.58l-84.11-84.108c-2.36 4.328-3.504 9.14-3.435 13.94l84.11 84.108c-.07-4.8 1.075-9.61 3.435-13.94z" fill="#FFF294"/>
  <path d="M206.583 403.268l11.075 11.075c3.125 3.125 3.125 8.188 0 11.312-1.563 1.563-3.61 2.344-5.656 2.344s-4.094-.782-5.656-2.345L195.27 414.58c-2.36 4.328-3.504 9.14-3.435 13.94l32.427 32.426c-.333-9.41 1.81-18.328 7.63-24.15 4.88-4.88 11.507-6.9 18.658-6.937l-30.027-30.028c-4.8-.07-9.612 1.077-13.94 3.436z" fill="#FFF"/>
  <path d="M229.68 298.367l147.35 147.35c-2.802-10.674-4-21.59-2.918-31.606l-8.455-8.454C364.094 407.22 362.047 408 360 408s-4.093-.78-5.655-2.344L230.948 282.26l-8.992 8.99c-1.605 1.606-2.26 3.795-1.98 5.883 3.066-1.804 7.072-1.4 9.705 1.234zM405.658 365.656l8.457 8.457c10.016-1.083 20.93.115 31.603 2.915L298.368 229.68c-2.632-2.633-3.038-6.64-1.233-9.705-2.088-.28-4.278.376-5.882 1.98l-8.992 8.992L405.66 354.344c3.125 3.125 3.125 8.187 0 11.312zM346.692 335.378c4.328-2.36 9.14-3.505 13.94-3.436L218.337 189.648c-3.125-3.125-3.125-8.188 0-11.313l-12.664-12.664c-1.563 1.564-3.61 2.345-5.656 2.345s-4.094-.78-5.656-2.344l-13.948-13.947c-4.8-.07-9.61 1.076-13.94 3.436l180.218 180.218zM331.944 360.63c-.07-4.8 1.076-9.612 3.436-13.94L155.16 166.472c-2.36 4.328-3.504 9.14-3.435 13.94l180.22 180.217z" fill="#FFF294"/>
  <path d="M414.115 374.113l-8.457-8.457c-1.563 1.563-3.61 2.344-5.656 2.344s-4.094-.78-5.656-2.344l-33.714-33.714c-4.8-.07-9.61 1.076-13.94 3.436l26.967 26.966c3.124 3.125 3.124 8.188 0 11.313-1.563 1.563-3.61 2.344-5.657 2.344s-4.094-.78-5.656-2.343L335.38 346.69c-2.36 4.33-3.504 9.14-3.435 13.94l33.714 33.714c3.124 3.125 3.124 8.188 0 11.313l8.454 8.455c1.164-10.768 4.962-20.497 12.232-27.768 7.27-7.27 17-11.066 27.77-12.23z" fill="#FFF"/>
  <path d="M58.346 69.656C59.908 71.22 61.956 72 64.002 72s4.094-.78 5.656-2.344c3.125-3.125 3.125-8.188 0-11.313l-56-56c-3.125-3.125-8.188-3.125-11.313 0s-3.125 8.188 0 11.313l56 56z" fill="#FF9300"/>
  <path d="M335.38 346.69l26.965 26.966c1.563 1.563 3.61 2.344 5.656 2.344s4.095-.78 5.657-2.344c3.125-3.125 3.125-8.188 0-11.313l-26.966-26.966L166.475 155.16 93.642 82.327c-3.125-3.125-8.188-3.125-11.313 0s-3.126 8.188 0 11.313l72.83 72.832L335.38 346.69z" fill="#FFCF00"/>
  <path d="M200.017 168.016c2.047 0 4.094-.78 5.656-2.344 3.125-3.125 3.125-8.187 0-11.312l-16.016-16.016c-3.125-3.125-8.188-3.125-11.313 0s-3.125 8.188 0 11.313l2.068 2.068 13.948 13.948c1.564 1.56 3.61 2.343 5.657 2.343z" fill="#FF9300"/>
  <path d="M218.338 189.648l142.294 142.294 33.714 33.714c1.563 1.563 3.61 2.344 5.656 2.344s4.094-.78 5.656-2.344c3.125-3.125 3.125-8.188 0-11.313L282.26 230.947l-52.61-52.61c-3.125-3.126-8.187-3.126-11.312 0-3.125 3.124-3.125 8.186 0 11.31z" fill="#FFCF00"/>
  <path d="M274.353 205.664c1.563 1.563 3.61 2.344 5.656 2.344s4.093-.78 5.655-2.344c3.125-3.125 3.125-8.188 0-11.313l-8.008-8.007c-3.125-3.125-8.188-3.125-11.313 0s-3.125 8.187 0 11.312l8.01 8.01z" fill="#FF9300"/>
  <path d="M298.37 229.68l147.348 147.35c18.603 4.88 36.467 14.638 47.542 25.713.746.746 1.467 1.508 2.168 2.282-.39-.975-.98-1.89-1.77-2.68L309.68 218.367c-3.124-3.125-8.187-3.125-11.312 0-.492.492-.897 1.035-1.234 1.607-1.804 3.067-1.4 7.072 1.235 9.706z" fill="#FFCF00"/>
  <path d="M200.01 288.008c2.047 0 4.094-.78 5.656-2.344 3.125-3.125 3.125-8.188 0-11.313l-8.008-8.007c-3.125-3.125-8.188-3.125-11.313 0s-3.125 8.188 0 11.313l8.008 8.008c1.563 1.562 3.61 2.344 5.657 2.344z" fill="#FF9300"/>
  <path d="M402.744 493.258c-11.07-11.074-20.83-28.938-25.713-47.54l-147.35-147.35c-2.632-2.634-6.638-3.04-9.704-1.234-.572.337-1.116.742-1.607 1.233-3.126 3.125-3.126 8.188 0 11.312l183.975 183.976c.79.79 1.704 1.38 2.68 1.77-.158-.144-.31-.298-.465-.442-.615-.56-1.222-1.132-1.816-1.726z" fill="#FFCF00"/>
  <path d="M85.658 114.344c-3.125-3.125-8.188-3.125-11.313 0s-3.125 8.188 0 11.313l16.008 16.008c1.563 1.563 3.61 2.344 5.656 2.344s4.093-.782 5.655-2.345c3.125-3.125 3.125-8.188 0-11.313l-16.007-16.008z" fill="#FF9300"/>
  <path d="M360.002 408c2.047 0 4.094-.78 5.656-2.344 3.125-3.125 3.125-8.188 0-11.313l-33.714-33.714-180.218-180.22-26.068-26.067c-3.125-3.125-8.188-3.125-11.313 0s-3.125 8.188 0 11.313L230.948 282.26l123.397 123.396c1.563 1.563 3.61 2.344 5.657 2.344z" fill="#FFCF00"/>
  <path d="M246.36 49.672c1.564 1.563 3.61 2.344 5.657 2.344s4.094-.78 5.656-2.344c3.125-3.125 3.125-8.188 0-11.313L221.658 2.343c-3.125-3.125-8.188-3.125-11.313 0s-3.125 8.188 0 11.313l36.016 36.015z" fill="#FF9300"/>
  <path d="M319.16 122.472l84.11 84.11 11.075 11.074c1.563 1.563 3.61 2.344 5.656 2.344s4.095-.78 5.657-2.344c3.125-3.125 3.125-8.188 0-11.313l-11.075-11.075-84.11-84.11-48.815-48.815c-3.125-3.125-8.188-3.125-11.313 0s-3.125 8.188 0 11.312l48.817 48.817z" fill="#FFCF00"/>
  <path d="M310.338 73.648c1.563 1.563 3.61 2.344 5.656 2.344s4.094-.78 5.656-2.344c3.125-3.125 3.125-8.187 0-11.312l-39.992-39.992c-3.125-3.125-8.188-3.125-11.313 0s-3.125 8.188 0 11.313l39.993 39.99z" fill="#FF9300"/>
  <path d="M458.548 221.86c14.088-.072 30.222 7.59 39.11 16.483L345.665 86.353c-3.125-3.126-8.188-3.126-11.313 0s-3.125 8.187 0 11.312l10.06 10.06 84.11 84.11 30.025 30.024z" fill="#FFCF00"/>
  <path d="M276.002 116c2.047 0 4.094-.78 5.656-2.344 3.125-3.125 3.125-8.188 0-11.313l-36-36c-3.125-3.125-8.188-3.125-11.313 0s-3.125 8.187 0 11.312l36 36c1.563 1.564 3.61 2.345 5.657 2.345z" fill="#FF9300"/>
  <path d="M432.26 252.947l-32.426-32.427-84.11-84.11-10.082-10.082c-3.125-3.125-8.188-3.125-11.313 0s-3.126 8.188 0 11.313l148.015 148.017c.47.47.985.86 1.528 1.187-6.383-8.137-11.17-21.444-11.612-33.897z" fill="#FFCF00"/>
  <path d="M44.017 260.016c2.047 0 4.094-.78 5.656-2.344 3.125-3.125 3.125-8.188 0-11.313l-36.016-36.017c-3.125-3.125-8.188-3.125-11.313 0s-3.125 8.188 0 11.313l36.016 36.016c1.564 1.562 3.61 2.344 5.657 2.344z" fill="#FF9300"/>
  <path d="M206.345 425.656c1.563 1.563 3.61 2.344 5.656 2.344s4.095-.78 5.657-2.344c3.125-3.125 3.125-8.187 0-11.312l-11.075-11.075-84.11-84.11-48.815-48.816c-3.125-3.125-8.188-3.125-11.313 0s-3.125 8.188 0 11.313l48.816 48.816 84.11 84.11 11.075 11.073z" fill="#FFCF00"/>
  <path d="M62.346 230.344c-3.125 3.125-3.125 8.188 0 11.313l39.992 39.992c1.563 1.562 3.61 2.343 5.656 2.343s4.094-.78 5.656-2.344c3.125-3.126 3.125-8.19 0-11.314l-39.992-39.992c-3.125-3.125-8.187-3.125-11.312 0z" fill="#FF9300"/>
  <path d="M250.55 429.86c14.087-.07 30.22 7.592 39.108 16.484l.018.02c-.006-.007-.012-.015-.018-.02L137.666 294.35c-3.125-3.124-8.188-3.124-11.313 0s-3.125 8.19 0 11.314l10.06 10.06 84.11 84.11 30.026 30.026z" fill="#FFCF00"/>
  <path d="M37.658 274.344c-3.125-3.125-8.188-3.125-11.313 0s-3.125 8.188 0 11.313l36 36C63.908 323.22 65.955 324 68 324s4.095-.78 5.657-2.343c3.125-3.125 3.125-8.188 0-11.313l-36-36z" fill="#FF9300"/>
  <path d="M224.26 460.947l-32.426-32.427-84.11-84.11-10.082-10.082c-3.125-3.125-8.188-3.125-11.313 0s-3.126 8.188 0 11.313l148.015 148.017c.468.468.984.858 1.527 1.186-6.383-8.137-11.17-21.444-11.61-33.896z" fill="#FFCF00"/>
  <path d="M495.427 405.024c-.7-.773-1.422-1.535-2.168-2.282 2.89 2.892 5.41 6.013 7.63 9.276-9.672-6.986-20.9-11.012-32.392-11.85-16.302-1.19-33.062 3.905-46.388 15.574-24.266 21.256-28.834 57.068-12.114 83.663-1.864-1.38-3.69-2.835-5.437-4.42.155.144.306.297.463.44 12.158 11.03 27.567 16.543 42.977 16.543 16.39 0 32.78-6.234 45.258-18.71 24.2-24.207 24.92-63.146 2.17-88.234z" fill="#D49E6C"/>
  <path d="M445.718 377.028c-10.672-2.8-21.587-3.998-31.603-2.915-10.77 1.164-20.5 4.962-27.77 12.23-7.27 7.27-11.067 17-12.23 27.77-1.084 10.016.115 20.93 2.917 31.604 4.884 18.603 14.642 36.467 25.713 47.54.594.595 1.2 1.17 1.816 1.728 1.75 1.587 3.574 3.042 5.438 4.42-16.72-26.594-12.15-62.406 12.114-83.662 13.326-11.67 30.086-16.763 46.388-15.574 11.49.837 22.72 4.863 32.392 11.85-2.22-3.265-4.74-6.385-7.63-9.277-11.077-11.075-28.94-20.833-47.544-25.715z" fill="#B68052"/>
  <path d="M497.752 246.2c-9.088-4.808-19.723-6.673-29.434-4.28-19.42 4.776-30.337 25.416-23.36 44.157.457 1.228 1.002 2.484 1.605 3.755-.067-.066-.15-.108-.218-.175 6.836 6.836 16.242 10.25 25.656 10.25s18.82-3.414 25.657-10.25c13.194-13.187 13.65-35.982 1.38-49.84 3.07 3.498 5.268 7.583 6.743 11.912-2.494-2.083-5.137-4-8.028-5.53zM497.658 238.344c.474.474.93.96 1.37 1.46-.442-.498-.896-.987-1.37-1.46z" fill="#D49E6C"/>
  <path d="M458.548 221.86c-7.15.035-13.777 2.057-18.656 6.937-5.82 5.82-7.965 14.74-7.63 24.15.44 12.453 5.227 25.76 11.61 33.896.802 1.02 1.627 1.967 2.473 2.813.067.067.15.11.218.175-.603-1.27-1.148-2.526-1.604-3.754-6.98-18.74 3.94-39.38 23.358-44.158 9.71-2.392 20.346-.526 29.434 4.28 2.89 1.53 5.534 3.448 8.03 5.53-1.476-4.33-3.675-8.414-6.745-11.912l-.01-.012c-.438-.5-.894-.986-1.37-1.46-8.886-8.893-25.02-16.556-39.11-16.485z" fill="#B68052"/>
  <path d="M297.78 459.73c-2.494-2.083-5.137-4-8.028-5.53-9.088-4.808-19.723-6.673-29.434-4.28-19.42 4.776-30.337 25.416-23.36 44.157.457 1.228 1.002 2.484 1.605 3.755-.067-.066-.15-.108-.218-.175 6.836 6.836 16.242 10.25 25.656 10.25 9.415 0 18.82-3.414 25.657-10.25 13.194-13.187 13.65-35.982 1.38-49.84 3.07 3.498 5.27 7.582 6.744 11.912zM291.027 447.805c-.435-.49-.883-.973-1.35-1.44l-.02-.02c.475.474.93.96 1.37 1.46z" fill="#D49E6C"/>
  <path d="M236.96 494.077c-6.98-18.74 3.94-39.38 23.358-44.158 9.71-2.393 20.346-.527 29.434 4.28 2.89 1.53 5.534 3.447 8.03 5.53-1.476-4.33-3.675-8.415-6.745-11.913l-.01-.012c-.438-.5-.894-.986-1.37-1.46-8.886-8.892-25.02-16.555-39.108-16.484-7.152.037-13.778 2.06-18.658 6.94-5.82 5.82-7.965 14.74-7.63 24.148.44 12.453 5.227 25.76 11.61 33.895.802 1.022 1.627 1.968 2.473 2.815.067.067.15.11.218.175-.603-1.27-1.148-2.528-1.604-3.756z" fill="#B68052"/>
</svg>
