
<svg xmlns="http://www.w3.org/2000/svg" viewBox="0 0 480 480">
  <path d="M291.965 5.66c1.55.342 3.097.7 4.637 1.072-1.54-.373-3.086-.73-4.637-1.073zM286.583 4.534c.863.17 1.726.337 2.585.516-.86-.18-1.723-.346-2.585-.516zM298.525 7.2c1.054.266 2.106.538 3.154.816-1.05-.278-2.1-.55-3.155-.815zM303.227 8.435c3.797 1.036 7.558 2.158 11.277 3.374-3.72-1.216-7.48-2.34-11.277-3.375zM245.557.07c.554.013 1.107.03 1.66.047-.553-.016-1.106-.034-1.66-.047zM315.066 11.99c1.303.43 2.602.868 3.895 1.32-1.292-.45-2.59-.89-3.894-1.32zM251.29.272c.552.026 1.105.05 1.657.078-.552-.03-1.105-.052-1.658-.078zM258.344.692c.267.02.532.047.798.068-.266-.02-.53-.048-.798-.068zM276.214 2.72c.63.095 1.26.203 1.888.303-.63-.1-1.256-.21-1.888-.304zM206.305 187.7c8.57 0 16.96 2.503 24.234 7.315l20.54 13.6c4.106 2.717 9.235 3.394 13.905 1.832l36.952-12.354 6.18-5.582c3.703-3.343 5.813-8.124 5.797-13.116-.023-4.273-1.602-8.38-4.39-11.55l-39.045 11.584c-1.35.4-2.81.064-3.848-.886l-26.227-24.004c-1.742-1.598-3.68-.977-4.227-.746-.547.227-2.36 1.152-2.47 3.504l2.26 17.81c.202 1.647-.634 3.253-2.11 4.026-1.47.773-3.273.56-4.516-.547L207.57 159.28c-7.485-3.953-16.665-2.773-22.938 3.035L177.67 179.8c-1.093 2.746-2.924 5.135-5.29 6.903l-11.053 8.253 37.273-6.578c2.564-.452 5.142-.68 7.705-.68z" fill="#48BBEE"/>
  <path d="M319.172 13.384c19.196 6.712 37.28 15.794 53.904 26.892-.02 0-.04.002-.058.003 16.745 11.174 32.006 24.395 45.422 39.313l.018-.034c7.273 8.083 13.975 16.682 20.102 25.704.203.298.405.596.606.896 2.433 3.617 4.77 7.302 7.008 11.055.335.562.667 1.125.998 1.69 1.702 2.906 3.366 5.838 4.95 8.82l-.013.04c13.48 25.433 22.532 53.577 26.105 83.412-.566.07-1.146.08-1.708-.09l-77.07-24.492 3.594 15.977c.76 3.348 2.82 6.117 5.806 7.81 2.984 1.687 6.422 2.02 9.672.944l8.898-2.945c1.227-.41 2.555-.206 3.602.556 1.04.75 1.656 1.957 1.656 3.242V233.927c0 8.867-4.203 17.208-11.328 22.485l-22.887 18.405c-3.527 2.835-8.7 2.185-11.414-1.435L350 224c-3.906-5.208-9.307-9.1-15.482-11.16L320 208l60.54 78.62c5.437 4.528 12.444 6.927 19.835 6.415l11.36-.777c1.226-.055 2.43.402 3.257 1.324.82.922 1.172 2.168.953 3.383l-4.672 25.75c-.156.84-.57 1.61-1.195 2.195l-46.875 44.164-35.023 88.53c-.453 1.153-1.422 2.032-2.617 2.372-4.414 1.27-8.906 1.895-13.367 1.895-8.133 0-16.18-2.08-23.476-6.175-11.227-6.293-19.29-16.566-22.703-28.934-2.703-9.796-4.016-16.323-4.016-19.956v-33.39l-5.405-2.08c-12.453-4.788-23.46-12.804-31.844-23.18l-12.374-15.327-53.172 9.492c-2.295.414-4.596.575-6.877.54 15.355 56.7 50.972 105.065 98.597 136.862-3.624.164-7.26.278-10.924.278 132.548 0 240-107.452 240-240 0-104.804-67.184-193.902-160.828-226.616zM263.744 1.17c.65.063 1.296.132 1.944.2-.648-.068-1.295-.138-1.944-.2zM269.26 1.78c.656.08 1.312.155 1.966.24-.654-.084-1.31-.16-1.966-.24z" fill="#48BBEE"/>
  <path d="M311.64 150.13l12.453-9.208c.514-.38.838-.896 1.233-1.364l.26-.087c2.207-2.764 2.386-6.76.178-9.74-2.61-3.546-7.633-4.304-11.188-1.675l-10.328 7.64h-19.586c-4.422 0-8 3.583-8 8s3.578 8 8 8h22.22c1.712 0 3.383-.55 4.758-1.566zM281.41 3.57c.825.145 1.648.294 2.47.447-.822-.153-1.646-.303-2.47-.446zM355.18 142.488c1.632 0 3.28-.5 4.702-1.535.213-.155.414-.32.607-.49 1.338-1.2 2.16-2.788 2.485-4.463l.045-.012c.4-2.1-.027-4.352-1.39-6.214l-20.476-28.086c-2.602-3.563-7.602-4.355-11.172-1.75-3.57 2.602-4.36 7.61-1.75 11.18l20.477 28.086c1.563 2.144 4 3.284 6.47 3.284z" fill="#48BBEE"/>
  <path d="M152.326 342.86c-3.923-.06-7.78-.755-11.428-2.047-4.294-1.517-8.28-3.852-11.74-6.888-.207-.18-.413-.358-.615-.543-.328-.3-.648-.61-.965-.923-.285-.282-.564-.568-.84-.86-.257-.27-.513-.543-.763-.824-.337-.38-.662-.77-.984-1.165-.184-.226-.374-.447-.555-.68-.5-.644-.984-1.303-1.443-1.987l-5.82-8.668c-8.668-12.907-11.843-28.427-9.36-43.306.033-.2.06-.402.096-.6.043-.242.094-.483.14-.724.08-.416.155-.83.243-1.246.013-.06.03-.117.04-.176.828-3.844 2.035-7.63 3.632-11.302.535-1.23 1.114-2.446 1.736-3.648l.02-.043 12.26-23.643-.18-8.246c-.282-12.745 7.843-23.765 19.74-27.386l-10.866-3.023c-8.28-2.304-14.148-9.616-14.61-18.198l-.577-10.69c-.57-10.63 7.273-19.837 17.86-20.958l10.655-1.13v-18.907c0-1.254.586-2.438 1.594-3.19L181.4 97.85c2.17-1.637 3.952-3.66 5.296-6.02l5.476-9.55-35.555 6.976c-1.172.223-2.39-.078-3.313-.836-.93-.762-1.46-1.895-1.46-3.09V74.367c0-10.938 4.882-21.148 13.405-28.02l50.093-40.402c1.28-1.035 3.07-1.176 4.508-.352l35.07 20.2c.94.538 2.024.667 3.08.386 1.038-.294 1.905-.978 2.42-1.927l13.39-21.807.016-.027c36.315 5.124 70.007 18.383 99.19 37.86l.06-.003c-16.624-11.098-34.71-20.18-53.905-26.892l-.21-.074c-1.293-.45-2.592-.89-3.895-1.318-.187-.062-.375-.12-.562-.182-3.72-1.215-7.48-2.338-11.277-3.374l-1.548-.42c-1.05-.277-2.1-.55-3.154-.814-.64-.16-1.282-.314-1.923-.47-1.54-.372-3.085-.73-4.636-1.072-.93-.206-1.86-.414-2.797-.61-.86-.178-1.723-.345-2.585-.515-.9-.177-1.8-.35-2.702-.518-.823-.152-1.646-.302-2.472-.446-1.1-.19-2.202-.37-3.306-.547-.63-.1-1.257-.208-1.888-.304-1.657-.252-3.32-.482-4.99-.7-.653-.084-1.31-.16-1.965-.24-1.19-.146-2.38-.282-3.574-.41-.647-.068-1.295-.137-1.944-.2-1.53-.152-3.063-.288-4.6-.41-.268-.02-.532-.048-.8-.068-1.792-.136-3.592-.246-5.396-.342-.552-.03-1.105-.052-1.658-.078-1.354-.063-2.712-.115-4.072-.155-.553-.017-1.106-.034-1.66-.047C243.71.028 241.858 0 240 0 107.452 0 0 107.452 0 240s107.452 240 240 240c3.664 0 7.3-.114 10.924-.276-47.626-31.797-83.243-80.164-98.598-136.863zM113.18 87.946c2.32-3.77 7.242-4.953 11.008-2.63l12.79 7.853c2.905 1.785 4.358 5.22 3.624 8.55l-5.656 25.466c-.828 3.73-4.14 6.266-7.805 6.266-.577 0-1.155-.06-1.74-.19-4.314-.958-7.032-5.23-6.08-9.544l4.423-19.898-7.93-4.867c-3.766-2.31-4.946-7.24-2.633-11.005z" fill="#0E94D7"/>
  <path d="M360.49 140.462c-.194.17-.395.336-.608.49.213-.154.416-.318.607-.49zM251.08 208.615l6.506 4.307 7.4-2.474c-4.67 1.56-9.8.885-13.906-1.833zM306.883 151.695h.004c1.71 0 3.377-.55 4.753-1.566l12.453-9.208-12.453 9.207c-1.375 1.015-3.046 1.565-4.757 1.565zM444.112 183.373l5.092 19.037-49.767-15.815 77.07 24.492c.563.17 1.143.16 1.708.09-3.573-29.834-12.625-57.978-26.106-83.412l-7.525 24.997c-2.997 9.96-3.16 20.56-.473 30.61zM330.374 288.44l-.877 1.315c-5.935 8.9-15.925 14.245-26.622 14.245h-93.748c-10.7 0-20.69 5.347-26.625 14.25l-15.068 22.602-8.22 1.467c-6.265 1.117-12.556.53-18.315-1.505 3.647 1.292 7.504 1.987 11.427 2.048 2.28.035 4.582-.126 6.877-.54l53.172-9.493 12.375 15.328c8.384 10.375 19.392 18.39 31.845 23.18l5.406 2.078v33.39c0 3.634 1.314 10.16 4.017 19.958 3.414 12.367 11.477 22.64 22.703 28.934 7.297 4.094 15.344 6.176 23.476 6.176 4.46 0 8.953-.625 13.367-1.895 1.195-.34 2.164-1.22 2.617-2.372l35.023-88.53 46.875-44.165c.625-.586 1.04-1.355 1.195-2.195l4.672-25.75c.22-1.215-.133-2.46-.953-3.383-.828-.922-2.03-1.38-3.258-1.324l-11.36.778c-7.39.512-14.397-1.887-19.835-6.414l-34.503-5.13c-6.126-.913-12.227 1.793-15.663 6.946zM446.175 117.215c.335.562.667 1.125.998 1.69-.33-.565-.663-1.128-.998-1.69zM438.56 105.264c.203.298.405.596.606.896-.2-.3-.403-.598-.606-.896z" fill="#00E389"/>
  <path d="M273.81 2.446c.14.02.28.027.42.047 13.09 1.87 25.84 4.8 38.16 8.692.892.283 1.754.63 2.643.922 5.05 1.662 10.04 3.46 14.935 5.442 1.634.66 3.227 1.4 4.843 2.097 4.095 1.764 8.147 3.605 12.12 5.586 1.83.914 3.63 1.878 5.433 2.837 3.685 1.958 7.318 4 10.886 6.14 1.818 1.092 3.624 2.202 5.412 3.34 1.38.88 2.703 1.842 4.065 2.75-97.838 4.528-180.374 67.618-213.35 155.027l1.952-.37 11.05-8.254c2.368-1.768 4.2-4.156 5.292-6.902l6.962-17.485c6.273-5.81 15.453-6.988 22.937-3.035l21.774 19.305c1.242 1.105 3.047 1.32 4.516.547 1.477-.773 2.313-2.38 2.11-4.027l-2.26-17.81c.11-2.35 1.923-3.276 2.47-3.503.547-.23 2.484-.852 4.227.746l26.227 24.004c1.038.95 2.498 1.286 3.847.886l39.045-11.585L288 174.23l-2.03-3.61c-3.503-6.23-2.287-14.05 2.944-18.924h-4.25c-4.422 0-8-3.582-8-8s3.578-8 8-8h19.586l10.328-7.64c3.555-2.63 8.578-1.872 11.188 1.675 2.207 2.98 2.03 6.976-.177 9.74L336 136h10.375l2.335 3.203-20.477-28.086c-2.61-3.57-1.82-8.578 1.75-11.18 3.57-2.605 8.57-1.813 11.172 1.75l20.477 28.086c1.36 1.863 1.79 4.115 1.39 6.214l15.9-4.383c8.36-2.304 15.425-7.9 19.58-15.51l19.938-36.5c-13.416-14.917-28.677-28.138-45.422-39.314-29.184-19.477-62.876-32.735-99.19-37.86l-.018.026z" fill="#00E389"/>
  <path d="M115.813 98.95l7.93 4.866-4.422 19.898c-.952 4.313 1.767 8.586 6.08 9.543.585.133 1.163.19 1.74.19 3.665 0 6.978-2.534 7.806-6.265l5.656-25.465c.734-3.332-.72-6.766-3.625-8.55l-12.79-7.853c-3.765-2.324-8.687-1.14-11.007 2.63-2.313 3.767-1.133 8.697 2.633 11.005z" fill="#0BB"/>
  <path d="M159.377 195.328c32.975-87.41 115.51-150.5 213.35-155.027-1.363-.906-2.685-1.87-4.066-2.75-1.787-1.138-3.592-2.248-5.412-3.34-3.567-2.14-7.2-4.18-10.886-6.14-1.804-.958-3.603-1.922-5.434-2.836-3.972-1.98-8.024-3.822-12.118-5.586-1.616-.697-3.208-1.436-4.843-2.098-4.896-1.982-9.885-3.78-14.935-5.442-.888-.293-1.75-.64-2.644-.922-12.32-3.894-25.068-6.822-38.16-8.692-.14-.02-.28-.027-.42-.047l-13.387 21.808c-.515.95-1.382 1.633-2.42 1.926-1.056.282-2.142.153-3.08-.386l-35.07-20.2c-1.437-.823-3.226-.683-4.507.353l-50.093 40.4c-8.523 6.872-13.406 17.083-13.406 28.02v10.966c0 1.195.53 2.328 1.46 3.09.923.758 2.142 1.06 3.314.836l35.555-6.978-5.476 9.55c-1.344 2.36-3.125 4.384-5.297 6.02l-31.805 24.005c-1.008.754-1.594 1.938-1.594 3.19v18.907l-10.655 1.133c-10.586 1.12-18.43 10.328-17.86 20.957l.58 10.69c.46 8.583 6.327 15.896 14.608 18.2l10.867 3.023 13.837-2.63zM107.83 294.822c-1.105-6.555-1.117-13.266-.02-19.85-2.482 14.878.693 30.398 9.362 43.305-.382-.568-.753-1.142-1.113-1.72-4.2-6.74-6.947-14.132-8.23-21.735zM107.907 274.37c.043-.24.095-.48.14-.722-.046.24-.097.48-.14.723zM108.29 272.402c.012-.06.028-.117.04-.176-.012.06-.028.118-.04.176z" fill="#0BB"/>
  <path fill="#FFEDB9" d="M122.99 326.944h.002l-5.82-8.667M111.96 260.925c.536-1.23 1.115-2.446 1.737-3.648-.622 1.202-1.2 2.418-1.736 3.648zM113.72 257.233h-.002l12.26-23.643M378.922 131.604l-15.9 4.383-.046.013c-.325 1.676-1.147 3.262-2.486 4.462-.192.172-.394.336-.607.49-1.422 1.036-3.07 1.536-4.703 1.536-2.47 0-4.906-1.14-6.47-3.285L346.376 136H336l-10.412 3.47-.26.087c-.396.468-.72.984-1.234 1.364l-12.453 9.208c-1.375 1.017-3.04 1.566-4.752 1.566h-17.974c-5.23 4.873-6.446 12.693-2.943 18.924l2.03 3.61 21.524-6.386c2.79 3.172 4.367 7.277 4.39 11.55.017 4.993-2.093 9.774-5.796 13.118l-6.18 5.582-36.952 12.354-7.4 2.474-6.506-4.307-20.54-13.6c-7.274-4.812-15.665-7.315-24.235-7.315-2.563 0-5.14.227-7.703.68l-37.273 6.578-1.952.37-13.838 2.63 13.9-2.64C149.5 221.655 144 250.177 144 280c0 21.74 2.954 42.774 8.373 62.797-8.57-.123-16.805-3.276-23.216-8.87 3.462 3.035 7.448 5.37 11.74 6.887 5.76 2.034 12.05 2.623 18.315 1.504l8.22-1.467 15.07-22.6c5.934-8.903 15.925-14.25 26.624-14.25h93.748c10.697 0 20.687-5.346 26.622-14.246l.877-1.315c3.436-5.153 9.537-7.86 15.663-6.95l34.502 5.13L320 208l14.517 4.84c6.175 2.057 11.575 5.95 15.48 11.157l37.038 49.383c2.715 3.62 7.888 4.27 11.413 1.435l22.887-18.405c7.125-5.277 11.328-13.618 11.328-22.485V212.176c0-1.285-.617-2.492-1.656-3.242-1.047-.762-2.375-.965-3.602-.555l-8.898 2.944c-3.25 1.074-6.688.742-9.672-.945-2.984-1.692-5.047-4.462-5.805-7.81l-3.594-15.977 49.767 15.815-5.092-19.037c-2.687-10.05-2.523-20.648.475-30.61l7.524-24.997.01-.04c-1.58-2.982-3.246-5.914-4.948-8.82-.33-.565-.663-1.13-.998-1.69-2.238-3.753-4.575-7.438-7.008-11.055-.2-.3-.403-.597-.606-.896-6.127-9.022-12.83-17.62-20.102-25.705l-.018.034-19.937 36.5c-4.156 7.613-11.222 13.21-19.58 15.514zM127.577 332.46c.317.313.638.622.965.923-.328-.3-.647-.61-.965-.923zM124.435 328.932c.18.232.37.454.556.68-.185-.227-.375-.448-.555-.68zM125.975 330.778c.25.28.506.553.763.825-.258-.272-.514-.545-.763-.825zM107.83 294.822c1.283 7.603 4.03 14.996 8.23 21.735-4.2-6.74-6.947-14.132-8.23-21.735z"/>
  <path d="M152.373 342.797C146.953 322.774 144 301.74 144 280c0-29.822 5.5-58.343 15.44-84.684l-13.9 2.64c-11.9 3.622-20.024 14.642-19.743 27.388l.18 8.246-12.258 23.644-.022.043c-.622 1.202-1.2 2.418-1.736 3.648-1.597 3.67-2.804 7.458-3.63 11.302-.014.06-.03.117-.04.176-.09.414-.165.83-.244 1.246-.046.24-.098.48-.14.722-.035.2-.063.4-.096.6-1.098 6.585-1.085 13.296.02 19.85 1.282 7.604 4.028 14.997 8.228 21.736.36.578.73 1.152 1.113 1.72l5.82 8.667c.46.684.943 1.343 1.443 1.987.18.232.37.454.556.68.322.396.647.787.984 1.166.25.28.505.553.763.825.275.29.554.577.84.858.317.314.636.624.964.924.202.185.41.363.614.543 6.41 5.594 14.644 8.747 23.215 8.87z" fill="#FFD586"/>
</svg>
