<?xml version="1.0" encoding="utf-8"?>
<!-- Generator: Adobe Illustrator 15.0.0, SVG Export Plug-In . SVG Version: 6.00 Build 0)  -->
<svg version="1.2" baseProfile="tiny" id="Layer_1" xmlns="http://www.w3.org/2000/svg" xmlns:xlink="http://www.w3.org/1999/xlink"
	 viewBox="0 0 147.899 148.242" overflow="inherit" xml:space="preserve">
<g>
		<path fill="#E9508D" d="M137.08,136.925c0,0-8.447-45.157-26.811-26.727C91.895,128.636,137.08,136.925,137.08,136.925z"/>
		<path fill="#FEE674" d="M128.798,128.675c0,0-6.964-30.083-18.54-18.471C98.688,121.818,128.798,128.675,128.798,128.675z"/>
	<path fill="#6F76A6" d="M107.185,66.527c-9.176,0-18.594-7.808-18.594-7.808l-1.376-1.376l0.02-0.02L53.757,23.852l0,0
		C28.435-1.892,0.027,0.038,0.027,0.038s-1.805,28.388,23.908,53.635l33.473,33.475l0.024-0.02l1.371,1.376
		c0,0,7.813,9.422,7.808,18.597c0,9.174-1.263,22.199-1.263,22.199l18.514,18.515l15.758-15.758l-13.039-13.044
		c0,0-5.152-5.471,0.64-11.268c2.625-2.627,4.982-4.98,6.778-6.779l1.645,17.612l11.507-11.512l11.513-11.511l-17.608-1.646
		c1.802-1.796,4.154-4.148,6.779-6.773c5.792-5.795,11.264-0.64,11.264-0.64l13.044,13.043l15.758-15.763l-18.516-18.513
		C129.383,65.264,116.364,66.525,107.185,66.527z"/>
		<path fill="#FEE674" d="M78.065,48.168c-1.294,6.827-4.787,13.688-10.458,19.359s-12.536,9.165-19.368,10.458l6.017,6.013
			c0,0,17.427,18.186,38.05,18.57l3.83-3.838l2.675-2.669l3.831-3.834c-0.375-20.625-18.568-38.05-18.568-38.05L78.065,48.168z"/>
		<path fill="#FEE674" d="M0.037,0.03c0,0-1.034,16.559,9.921,35.625c5.935-0.979,11.947-3.969,16.875-8.905
			c4.934-4.929,7.925-10.937,8.911-16.868C16.62-1.069,0.037,0.03,0.037,0.03z"/>
		<path fill="#C2D8E1" d="M87.854,71.28c4.588,4.572,4.617,11.976,0.073,16.539c-4.543,4.562-11.951,4.558-16.538-0.011
			c-4.582-4.572-4.611-11.973-0.073-16.538C75.87,66.708,83.267,66.715,87.854,71.28z"/>
		<path fill="#D8EFF9" d="M85.283,72.223c4.026,4.002,4.051,10.484,0.063,14.484c-3.982,3.991-10.463,3.988-14.484-0.014
			c-4.016-3.998-4.04-10.486-0.059-14.481C74.791,68.211,81.271,68.216,85.283,72.223z"/>
		<path fill="#6F76A6" d="M88.464,88.388c-4.846,4.843-12.752,4.834-17.627-0.026c-4.885-4.866-4.914-12.781-0.073-17.643l0.02-0.02
			c4.842-4.844,12.752-4.83,17.627,0.03c4.88,4.869,4.914,12.78,0.073,17.641L88.464,88.388z M71.891,71.81
			c-4.25,4.266-4.221,11.186,0.055,15.443c4.265,4.251,11.176,4.26,15.411,0.024l0.01-0.012c4.235-4.251,4.211-11.172-0.063-15.427
			C83.043,67.586,76.128,67.576,71.891,71.81z"/>
		<path fill="#C2D8E1" d="M63.8,47.222c4.582,4.577,4.612,11.977,0.068,16.543c-4.543,4.557-11.951,4.554-16.533-0.012
			c-4.588-4.574-4.616-11.974-0.073-16.539C51.81,42.648,59.213,42.659,63.8,47.222z"/>
		<path fill="#D8EFF9" d="M61.229,48.168c4.021,3.997,4.045,10.482,0.062,14.481c-3.981,3.995-10.467,3.99-14.483-0.012
			c-4.017-4.001-4.046-10.49-0.059-14.481C50.731,44.157,57.212,44.159,61.229,48.168z"/>
		<path fill="#6F76A6" d="M64.406,64.331c-4.847,4.847-12.752,4.831-17.622-0.026c-4.885-4.868-4.919-12.778-0.073-17.642
			l0.015-0.017c4.846-4.844,12.752-4.835,17.627,0.023c4.886,4.871,4.914,12.786,0.073,17.645L64.406,64.331z M47.833,47.754
			c-4.25,4.265-4.216,11.185,0.059,15.445c4.261,4.246,11.171,4.26,15.407,0.023l0.015-0.014c4.235-4.25,4.206-11.171-0.069-15.427
			C58.984,43.532,52.069,43.52,47.833,47.754z"/>
</g>
</svg>
