<?xml version="1.0" encoding="utf-8"?>
<!-- Generator: Adobe Illustrator 15.0.0, SVG Export Plug-In . SVG Version: 6.00 Build 0)  -->
<svg version="1.2" baseProfile="tiny" id="Layer_1" xmlns="http://www.w3.org/2000/svg" xmlns:xlink="http://www.w3.org/1999/xlink"
	viewBox="0 0 147.899 148.242" overflow="inherit" xml:space="preserve">
	<g class="body">
		<polygon fill="#8FB6C9" points="147.899,2.306 132.018,15.155 133.534,16.671 135.05,18.188 "/>
		<path fill="#406B7E" d="M133.852,24.915c-2.364,2.364-6.197,2.364-8.562,0c-2.364-2.364-2.364-6.197,0-8.562
			c2.365-2.365,6.198-2.365,8.562,0C136.216,18.718,136.216,22.551,133.852,24.915"/>
		<path fill="#A5D1E6" d="M120.98,14.9c-4.482,0.428-13.696,2.336-21.91,10.55L40.875,83.645l-5.752-5.753L92.38,20.634
			C100.113,12.901,111.46,10.991,120.98,14.9"/>
		<rect x="40.551" y="63.572" transform="matrix(0.7071 -0.7071 0.7071 0.7071 -26.3145 73.8031)" fill="#A5D1E6" width="70.758" height="10.187"/>
		<rect x="69.894" y="25.372" transform="matrix(-0.7071 -0.7071 0.7071 -0.7071 77.996 156.6459)" fill="#A5D1E6" width="3.094" height="73.596"/>
		<path fill="#8FB6C9" d="M129.571,57.825l-57.258,57.258L54.515,97.284l50.033-50.033l-7.204-7.204L47.311,90.081l-0.797-0.798
			l52.04-52.04l-2.187-2.188l-52.041,52.04l-3.451-3.451L99.07,25.45c8.214-8.214,17.428-10.122,21.91-10.55
			c0.572,0.235,1.141,0.492,1.699,0.771c2.486,1.237,4.819,2.892,6.892,4.963C139.841,30.904,139.841,47.555,129.571,57.825"/>
		<path fill="#3690B0" d="M108.968,55.728c-3.871,0-7.509-1.508-10.246-4.244c-5.649-5.65-5.649-14.844,0-20.494
			c2.737-2.737,6.375-4.244,10.246-4.244s7.511,1.507,10.247,4.244c5.651,5.65,5.651,14.844,0,20.494
			C116.479,54.22,112.839,55.728,108.968,55.728"/>
		<path fill="#C9EBFC" d="M108.969,29.148c3.093,0,6.187,1.181,8.546,3.541c4.721,4.721,4.721,12.373,0,17.094
			c-2.359,2.36-5.453,3.54-8.546,3.54c-3.094,0-6.187-1.18-8.548-3.54c-4.72-4.721-4.72-12.373,0-17.094
			C102.783,30.329,105.875,29.148,108.969,29.148 M108.969,24.341c-4.513,0-8.756,1.758-11.946,4.949
			c-3.191,3.19-4.949,7.433-4.949,11.946c0,4.513,1.758,8.756,4.949,11.946c3.19,3.191,7.434,4.948,11.946,4.948
			s8.755-1.757,11.946-4.948c3.191-3.19,4.949-7.434,4.949-11.946c0-4.514-1.758-8.756-4.949-11.946
			C117.724,26.099,113.482,24.341,108.969,24.341"/>
		<path fill="#42AACF" d="M99.482,30.165c-0.444-0.444-1.165-0.444-1.608,0c-0.444,0.444-0.444,1.164,0,1.607
			c0.443,0.444,1.164,0.444,1.608,0C99.926,31.329,99.926,30.609,99.482,30.165"/>
		<path fill="#42AACF" d="M120.04,50.724c-0.443-0.444-1.163-0.444-1.606,0c-0.445,0.444-0.445,1.164,0,1.607
			c0.443,0.445,1.163,0.445,1.606,0C120.485,51.888,120.485,51.168,120.04,50.724"/>
		<path fill="#42AACF" d="M108.957,25.573c-0.628,0-1.137,0.51-1.137,1.138s0.509,1.138,1.137,1.138s1.138-0.51,1.138-1.138
			S109.584,25.573,108.957,25.573"/>
		<path fill="#42AACF" d="M108.957,54.648c-0.628,0-1.137,0.509-1.137,1.137s0.509,1.138,1.137,1.138s1.138-0.51,1.138-1.138
			S109.584,54.648,108.957,54.648"/>
		<path fill="#42AACF" d="M94.432,40.099c-0.628,0-1.138,0.51-1.138,1.138s0.51,1.138,1.138,1.138s1.138-0.51,1.138-1.138
			S95.06,40.099,94.432,40.099"/>
		<path fill="#42AACF" d="M123.506,40.099c-0.628,0-1.138,0.51-1.138,1.138s0.51,1.138,1.138,1.138s1.137-0.51,1.137-1.138
			S124.134,40.099,123.506,40.099"/>
		<path fill="#42AACF" d="M99.494,50.712c-0.444-0.445-1.164-0.445-1.607,0c-0.445,0.443-0.445,1.163,0,1.608
			c0.443,0.443,1.163,0.443,1.607,0C99.938,51.875,99.938,51.155,99.494,50.712"/>
		<path fill="#42AACF" d="M120.052,30.153c-0.444-0.445-1.164-0.445-1.608,0c-0.443,0.443-0.443,1.163,0,1.607
			c0.444,0.444,1.164,0.444,1.608,0S120.497,30.597,120.052,30.153"/>
		<rect x="24.339" y="95.211" transform="matrix(0.7071 0.7071 -0.7071 0.7071 85.2372 -6.6421)" fill="#406B7E" width="52.595" height="8.716"/>
		<path fill="#7A9CAD" d="M96.995,90.401l-24.682,24.681l14.729,14.729C87.042,129.811,96.995,114.4,96.995,90.401"/>
		<path fill="#7A9CAD" d="M59.804,53.211L35.123,77.892L20.395,63.163C20.395,63.163,35.804,53.211,59.804,53.211"/>
	</g>
	<g class="flame">
		<path fill="#F68958" d="M43.14,124.018c6.281-6.282,0-19.427,0-19.427s-13.145-6.281-19.426,0
		c-6.282,6.281-11.092,10.663-14.034,10.663c0,0,5.515,5.883,8.458,2.941c0,0-13.789,25.187-17.65,29.047
		c3.861-3.86,29.048-17.649,29.048-17.649c-2.941,2.942,2.942,8.458,2.942,8.458C32.478,135.108,36.859,130.299,43.14,124.018"/>
		<path fill="#FEC866" d="M41.779,116.488c3.367-3.367,0-10.412,0-10.412s-7.046-3.368-10.413,0c-3.366,3.366-5.945,5.715-7.521,5.715
		c0,0,2.957,3.153,4.533,1.576c0,0-7.391,13.501-9.46,15.569c2.07-2.068,15.57-9.459,15.57-9.459
		c-1.577,1.576,1.576,4.532,1.576,4.532C36.063,122.434,38.413,119.855,41.779,116.488"/>
		<path fill="#FFF9B0" d="M40.875,107.382c0,0,1.854,7.701-7.11,7.701C33.765,115.083,33.241,107.382,40.875,107.382"/>
	</g>
</svg>
