<?xml version="1.0" encoding="utf-8"?>
<!-- Generator: Adobe Illustrator 15.0.0, SVG Export Plug-In . SVG Version: 6.00 Build 0)  -->
<svg version="1.2" baseProfile="tiny" id="Layer_1" xmlns="http://www.w3.org/2000/svg" xmlns:xlink="http://www.w3.org/1999/xlink"
	viewBox="0 0 235.614 164.299" overflow="inherit" xml:space="preserve">
	<path fill="#6F76A6" d="M177.938,53.229l-13.127,15.559c-1.623,1.928-2.557,3.814-2.074,4.225c0.49,0.408,2.195-0.824,3.824-2.754
	l13.123-15.561L177.938,53.229z"/>
	<path fill="#FEE674" d="M180.745,59.309c-1.76,2.076-4.861,2.342-6.936,0.588c-2.072-1.748-2.334-4.854-0.582-6.926
	c1.746-2.07,4.85-2.334,6.936-0.588C182.225,54.131,182.491,57.238,180.745,59.309z"/>
	<path fill="#6F76A6" d="M52.043,63.893l15.559,13.129c1.928,1.625,3.164,3.33,2.754,3.814c-0.408,0.484-2.297-0.445-4.227-2.07
	L50.573,65.633L52.043,63.893z"/>
	<path fill="#FEE674" d="M50.309,70.355c2.078,1.754,5.182,1.49,6.93-0.588c1.748-2.068,1.486-5.176-0.588-6.924
	c-2.07-1.746-5.174-1.486-6.93,0.588C47.973,65.502,48.235,68.609,50.309,70.355z"/>
	<path fill="#FEE674" d="M162.883,150.291c0.469,5.537-17.209,11.553-39.469,13.439c-22.26,1.885-40.691-1.074-41.158-6.611
	c-0.473-5.537,17.201-11.559,39.463-13.443C143.979,141.789,162.415,144.752,162.883,150.291z"/>
	<path fill="#6F76A6" d="M125.86,22.568c0.146,1.738-0.918,3.248-2.381,3.371l-23.295,1.973c-1.465,0.125-2.77-1.184-2.918-2.924
	l0,0c-0.146-1.738,0.922-3.248,2.383-3.373l23.299-1.973C124.409,19.518,125.711,20.828,125.86,22.568L125.86,22.568z"/>
	<path fill="#6F76A6" d="M108.59,2.184l1.719,20.289c0.213,2.512,0.891,4.506,1.52,4.453c0.633-0.053,0.967-2.135,0.754-4.646
	L110.866,1.99L108.59,2.184z"/>
	<path fill="#FEE674" d="M117.661,6.862c0.35,4.13-2.717,7.76-6.844,8.108c-4.127,0.35-7.758-2.712-8.107-6.841
	c-0.348-4.122,2.715-7.753,6.842-8.103C113.68-0.322,117.311,2.742,117.661,6.862z"/>
	<path fill="#CEE3EC" d="M165.79,68.967c-4.129-35.057-27.131-45.496-54.061-43.215S63.883,42.191,65.713,77.443L165.79,68.967z"
	/>
	<path fill="#D8EFF9" d="M153.264,70.027c-3.602-30.676-23.564-37.836-47.125-35.84c-23.555,1.994-42.027,12.41-40.426,43.256
	L153.264,70.027z"/>
	<path fill="#E9508D" d="M161.27,69.1l-93.359,7.906c-36,6.799-60.4,16.861-59.621,26.057c0.076,0.904,0.407,1.777,0.951,2.617
	l214.691-18.184c0.395-0.918,0.568-1.834,0.488-2.74C223.643,75.562,197.903,69.746,161.27,69.1z"/>
	<path fill="#6F76A6" d="M154.139,40.004c-4.225-9.768-21.883-15.99-42.414-14.252C91.2,27.49,74.848,36.594,72.325,46.934
	L154.139,40.004z"/>
	<path fill="#6F76A6" d="M172.129,143.848c0.264,3.107-2.047,5.834-5.146,6.096l-88.83,7.525c-3.098,0.26-5.834-2.039-6.098-5.146
	l0,0c-0.264-3.105,2.049-5.83,5.146-6.092l88.83-7.523C169.131,138.445,171.868,140.74,172.129,143.848L172.129,143.848z"/>
	<rect x="9.34" y="100.356" transform="matrix(0.9964 -0.0844 0.0844 0.9964 -8.9381 10.3372)" fill="#FEE674" width="216.906" height="21.054"/>
	<path fill="#E9508D" d="M74.204,151.326l93.359-7.908c36.002-6.801,60.398-16.861,59.621-26.057
	c-0.076-0.904-0.398-1.781-0.945-2.617l-214.69,18.184c-0.395,0.916-0.574,1.832-0.496,2.74
	C11.83,144.861,37.573,150.676,74.204,151.326z"/>
	<path fill="#6F76A6" d="M2.199,133.715c-0.267-3.15,1.578-5.879,4.126-6.096l224.172-18.986c2.545-0.217,4.826,2.166,5.092,5.316
	l0,0c0.268,3.156-1.58,5.887-4.125,6.102L7.292,139.039C4.743,139.254,2.466,136.873,2.199,133.715L2.199,133.715z"/>
	<path fill="#6F76A6" d="M0.026,108.064c-0.268-3.154,1.577-5.883,4.126-6.098L228.325,82.98c2.543-0.217,4.826,2.164,5.094,5.316
	l0,0c0.268,3.158-1.584,5.883-4.129,6.1L5.12,113.381C2.57,113.598,0.293,111.221,0.026,108.064L0.026,108.064z"/>
	<path fill="#6F76A6" d="M23.871,118.842c0.188,2.223-1.453,4.182-3.672,4.371c-2.213,0.188-4.162-1.471-4.35-3.689
	c-0.189-2.225,1.453-4.189,3.666-4.375C21.736,114.959,23.681,116.619,23.871,118.842z"/>
	<path fill="#6F76A6" d="M45.458,117.014c0.189,2.223-1.453,4.182-3.673,4.371c-2.213,0.188-4.165-1.471-4.354-3.689
	c-0.188-2.225,1.457-4.189,3.67-4.375C43.321,113.131,45.27,114.791,45.458,117.014z"/>
	<path fill="#6F76A6" d="M67.036,115.188c0.188,2.221-1.447,4.18-3.67,4.369c-2.213,0.186-4.164-1.469-4.352-3.689
	c-0.189-2.227,1.455-4.189,3.668-4.375C64.905,111.303,66.848,112.963,67.036,115.188z"/>
	<path fill="#6F76A6" d="M88.62,113.359c0.189,2.221-1.453,4.18-3.672,4.369c-2.217,0.186-4.164-1.469-4.35-3.689
	c-0.189-2.227,1.451-4.188,3.666-4.377C86.483,109.475,88.432,111.135,88.62,113.359z"/>
	<path fill="#6F76A6" d="M110.206,111.531c0.188,2.221-1.453,4.18-3.676,4.369c-2.209,0.186-4.162-1.469-4.35-3.689
	c-0.189-2.227,1.459-4.189,3.666-4.377C108.069,107.646,110.018,109.307,110.206,111.531z"/>
	<path fill="#6F76A6" d="M131.79,109.703c0.189,2.221-1.451,4.182-3.674,4.369c-2.213,0.186-4.158-1.469-4.346-3.689
	c-0.191-2.227,1.453-4.188,3.664-4.377C129.653,105.818,131.602,107.479,131.79,109.703z"/>
	<path fill="#6F76A6" d="M153.37,107.875c0.189,2.221-1.453,4.182-3.674,4.369c-2.211,0.188-4.158-1.469-4.348-3.691
	c-0.188-2.225,1.453-4.186,3.666-4.373C151.237,103.992,153.182,105.65,153.37,107.875z"/>
	<path fill="#6F76A6" d="M174.956,106.047c0.188,2.221-1.455,4.182-3.678,4.369c-2.209,0.188-4.152-1.469-4.34-3.691
	c-0.189-2.225,1.447-4.186,3.656-4.375C172.819,102.164,174.768,103.822,174.956,106.047z"/>
	<path fill="#6F76A6" d="M196.536,104.219c0.188,2.221-1.451,4.182-3.67,4.369c-2.215,0.188-4.16-1.469-4.348-3.691
	c-0.186-2.225,1.449-4.186,3.664-4.373C194.401,100.336,196.35,101.994,196.536,104.219z"/>
	<path fill="#6F76A6" d="M218.124,102.391c0.186,2.221-1.453,4.182-3.672,4.369s-4.164-1.469-4.352-3.689
	c-0.189-2.225,1.449-4.188,3.668-4.377C215.987,98.508,217.932,100.166,218.124,102.391z"/>
</svg>
