
<svg xmlns="http://www.w3.org/2000/svg" viewBox="0 0 512 512">
  <circle cx="256" cy="256" r="112" fill="#FFCF00"/>
  <path class="ray" d="M256 72c4.422 0 8-3.582 8-8V8c0-4.418-3.578-8-8-8s-8 3.582-8 8v56c0 4.418 3.578 8 8 8zM256 120c4.422 0 8-3.582 8-8V96c0-4.418-3.578-8-8-8s-8 3.582-8 8v16c0 4.418 3.578 8 8 8zM256 440c-4.422 0-8 3.578-8 8v56c0 4.422 3.578 8 8 8s8-3.578 8-8v-56c0-4.422-3.578-8-8-8zM256 392c-4.422 0-8 3.578-8 8v16c0 4.422 3.578 8 8 8s8-3.578 8-8v-16c0-4.422-3.578-8-8-8zM504 248h-56c-4.422 0-8 3.578-8 8s3.578 8 8 8h56c4.422 0 8-3.578 8-8s-3.578-8-8-8zM400 248c-4.422 0-8 3.578-8 8s3.578 8 8 8h16c4.422 0 8-3.578 8-8s-3.578-8-8-8h-16zM72 256c0-4.422-3.578-8-8-8H8c-4.422 0-8 3.578-8 8s3.578 8 8 8h56c4.422 0 8-3.578 8-8zM112 248H96c-4.422 0-8 3.578-8 8s3.578 8 8 8h16c4.422 0 8-3.578 8-8s-3.578-8-8-8z" fill="#FFCF00"/>
  <path class="ray" d="M148.523 352.164l-66.18 66.18c-3.125 3.125-3.125 8.188 0 11.313C83.906 431.22 85.953 432 88 432s4.094-.78 5.656-2.344l66.18-66.18c3.125-3.125 3.125-8.188 0-11.313s-8.188-3.124-11.313 0zM357.82 162.176c2.047 0 4.094-.78 5.656-2.344l66.18-66.176c3.125-3.125 3.125-8.188 0-11.313s-8.187-3.125-11.312 0l-66.18 66.176c-3.125 3.124-3.125 8.187 0 11.312 1.562 1.563 3.61 2.344 5.656 2.344z" fill="#FF9300"/>
  <path class="ray" d="M193.5 126.023c1.273 3.078 4.258 4.94 7.39 4.94 1.024 0 2.064-.198 3.064-.612 4.078-1.69 6.016-6.37 4.328-10.452L183.79 60.77c-1.69-4.082-6.384-6-10.454-4.328-4.078 1.69-6.016 6.37-4.328 10.453l24.492 59.128zM318.5 385.976c-1.695-4.078-6.383-6-10.453-4.328-4.078 1.688-6.016 6.367-4.328 10.453l24.49 59.126c1.274 3.078 4.26 4.938 7.392 4.938 1.023 0 2.063-.195 3.063-.61 4.078-1.687 6.016-6.366 4.328-10.452L318.5 385.976z" fill="#FF7400"/>
  <path class="ray" d="M363.476 352.164c-3.125-3.125-8.188-3.125-11.313 0s-3.125 8.188 0 11.313l66.18 66.18c1.563 1.563 3.61 2.344 5.656 2.344s4.093-.78 5.655-2.343c3.125-3.125 3.125-8.188 0-11.313l-66.18-66.18zM148.523 159.832c1.563 1.563 3.61 2.344 5.656 2.344s4.093-.78 5.655-2.344c3.125-3.125 3.125-8.188 0-11.313l-66.18-66.177c-3.125-3.125-8.188-3.125-11.313 0s-3.125 8.188 0 11.313l66.18 66.176z" fill="#FF9300"/>
  <path class="ray" d="M308.047 130.352c1 .414 2.04.613 3.063.613 3.133 0 6.117-1.863 7.39-4.94l24.493-59.13c1.688-4.082-.25-8.762-4.328-10.453-4.055-1.676-8.766.242-10.453 4.328L303.72 119.9c-1.69 4.08.25 8.76 4.327 10.452zM203.953 381.648c-4.055-1.68-8.766.242-10.453 4.328L169.008 445.1c-1.688 4.087.25 8.767 4.328 10.454 1 .414 2.04.61 3.063.61 3.132 0 6.116-1.86 7.39-4.94l24.492-59.124c1.687-4.085-.25-8.764-4.33-10.452zM130.352 308.047c-1.688-4.086-6.39-6.016-10.453-4.328l-59.126 24.49c-4.078 1.69-6.016 6.368-4.328 10.454 1.273 3.078 4.258 4.938 7.39 4.938 1.024 0 2.064-.195 3.064-.61l59.125-24.49c4.077-1.69 6.014-6.37 4.327-10.455zM381.648 203.953c1.273 3.078 4.258 4.938 7.39 4.938 1.024 0 2.064-.194 3.064-.608l59.125-24.492c4.078-1.688 6.016-6.367 4.328-10.453-1.688-4.078-6.39-6-10.453-4.328l-59.126 24.49c-4.078 1.687-6.015 6.367-4.328 10.453zM60.773 183.79l59.125 24.49c1 .415 2.04.61 3.063.61 3.134 0 6.118-1.86 7.392-4.938 1.688-4.086-.25-8.766-4.328-10.453L66.9 169.006c-4.064-1.676-8.767.25-10.454 4.328-1.688 4.087.25 8.767 4.327 10.454zM451.226 328.21L392.1 303.72c-4.062-1.69-8.765.24-10.452 4.327s.25 8.766 4.328 10.453l59.125 24.492c1 .414 2.04.61 3.064.61 3.133 0 6.117-1.86 7.39-4.94 1.688-4.084-.25-8.764-4.328-10.45z" fill="#FF7400"/>
</svg>
